Coordinates
version=1
nRows=15
nColumns=23
inDegrees=yes

Units are S.I. units (second, meters, Newtons, ...)
If the header above contains a line with 'inDegrees', this indicates whether rotational values are in degrees (yes) or radians (no).

endheader
time	pelvis_tilt	pelvis_list	pelvis_rotation	pelvis_tx	pelvis_ty	pelvis_tz	hip_flexion_r	hip_adduction_r	hip_rotation_r	knee_angle_r	knee_angle_r_beta	ankle_angle_r	subtalar_angle_r	mtp_angle_r	hip_flexion_l	hip_adduction_l	hip_rotation_l	knee_angle_l	knee_angle_l_beta	ankle_angle_l	subtalar_angle_l	mtp_angle_l
     15.00000000	     -8.51722248	     -3.83264184	     -4.67933722	      2.38170158	      0.91440631	      1.00585340	     25.53118044	      8.69540173	     -3.78323874	     37.24674750	      0.65007838	     13.94365595	    -14.24120237	      0.00000000	      6.79944681	     -4.28542612	     -1.84900940	     88.21407928	      1.53962613	    -17.56976083	    -10.03219672	      0.00000000
     15.00666667	     -8.71804248	     -3.77459178	     -4.15932251	      2.37948569	      0.91325672	      1.00532577	     24.44480949	      8.33202678	     -4.01904515	     37.74988887	      0.65885985	     15.84878376	    -13.46275001	      0.00000000	      9.65152027	     -4.34258447	     -0.82045203	     90.61664123	      1.58155875	    -15.76287641	    -10.64304916	      0.00000000
     15.01333333	     -8.94408265	     -3.79844128	     -3.56024707	      2.37740413	      0.91269870	      1.00470846	     23.10187671	      8.07830496	     -4.25003428	     37.67227856	      0.65750530	     17.21945924	    -12.97215398	      0.00000000	     12.54915586	     -4.37590148	      0.35502970	     92.66229311	      1.61726211	    -14.03999809	    -11.49899191	      0.00000000
     15.02000000	     -9.24366233	     -3.71384646	     -2.95356512	      2.37549879	      0.91260216	      1.00401331	     21.67304614	      7.67064091	     -4.64346089	     37.29014687	      0.65083584	     18.49660975	    -12.19695993	      0.00000000	     15.51949877	     -4.21070650	      1.47814128	     94.30735618	      1.64597387	    -12.29448818	    -12.17338815	      0.00000000
     15.02666667	     -9.52158731	     -3.63989032	     -2.34667244	      2.37372375	      0.91305983	      1.00333687	     20.01400697	      7.35393739	     -4.92903412	     36.46958006	      0.63651425	     19.26155029	    -11.56571954	      0.00000000	     18.41419535	     -3.94633271	      2.60566608	     95.55217683	      1.66770009	    -10.72189049	    -12.99901222	      0.00000000
     15.03333333	     -9.90345932	     -3.45689565	     -1.83441324	      2.37216614	      0.91388580	      1.00279633	     18.33516261	      6.96896168	     -5.18260849	     35.39316619	      0.61772728	     19.81122310	    -10.85633253	      0.00000000	     21.32769729	     -3.51219588	      3.56343485	     96.37994348	      1.68214735	     -9.27566261	    -13.69695133	      0.00000000
     15.04000000	    -10.34947884	     -3.18218005	     -1.40960672	      2.37079888	      0.91512171	      1.00239781	     16.62212897	      6.54742740	     -5.36437451	     34.08125297	      0.59483008	     20.01715748	    -10.07523600	      0.00000000	     24.19317660	     -2.96173455	      4.32087421	     96.79143000	      1.68932914	     -7.98440641	    -14.31455807	      0.00000000
     15.04666667	    -10.82699926	     -2.79896917	     -1.10283423	      2.36974307	      0.91677344	      1.00224634	     14.85950313	      6.08266920	     -5.41572725	     32.58979007	      0.56879914	     19.90599445	     -9.29277293	      0.00000000	     26.92371668	     -2.33267078	      4.82095461	     96.74816614	      1.68857404	     -6.89097883	    -14.85071170	      0.00000000
     15.05333333	    -11.36204095	     -2.22848790	     -1.02815976	      2.36892864	      0.91882917	      1.00231562	     13.13154472	      5.50381833	     -5.16847227	     31.00365107	      0.54111579	     19.73145295	     -8.56396526	      0.00000000	     29.50076241	     -1.53058311	      4.97710902	     96.25506881	      1.67996787	     -6.11748054	    -15.22947027	      0.00000000
     15.06000000	    -11.79262090	     -1.79578577	     -0.75931501	      2.36839669	      0.92121948	      1.00235645	     11.20297686	      5.00318081	     -5.38908172	     29.16959961	      0.50910555	     18.55476909	     -7.76912618	      0.00000000	     31.89330780	     -0.91062586	      5.20258570	     95.46958532	      1.66625860	     -5.07545257	    -15.80393346	      0.00000000
     15.06666667	    -11.96248610	     -1.25990193	     -0.64012821	      2.36840570	      0.92440869	      1.00259369	      8.87101657	      4.51996522	     -5.19798145	     27.03867002	      0.47191382	     17.21741975	     -7.40740551	      0.00000000	     33.71660463	     -0.23764250	      5.16894423	     94.19707862	      1.64404917	     -4.39462642	    -16.17420228	      0.00000000
     15.07333333	    -12.46674598	     -0.54130113	     -0.60072062	      2.36845491	      0.92740247	      1.00288081	      7.06924513	      3.77534400	     -5.22851306	     25.16522225	      0.43921599	     15.55432656	     -6.75775542	      0.00000000	     35.76897467	      0.57848227	      4.90954800	     92.59097896	      1.61601744	     -3.72546680	    -16.45161529	      0.00000000
     15.08000000	    -12.58921299	      0.16382741	     -0.50396763	      2.36903862	      0.93116659	      1.00310934	      4.69839124	      3.13268807	     -5.02784658	     22.89744547	      0.39963581	     13.48924305	     -6.58508714	      0.00000000	     37.17157234	      1.39365202	      4.63341060	     90.59327550	      1.58115094	     -3.20329612	    -16.65000317	      0.00000000
     15.08666667	    -12.90915169	      0.95009272	     -0.43228683	      2.36971315	      0.93479577	      1.00330800	      2.67331561	      2.36496087	     -4.98767597	     20.79726518	      0.36298075	     11.09119104	     -6.36442402	      0.00000000	     38.64572989	      2.24661341	      4.22788521	     88.30403395	      1.54119614	     -2.68021695	    -16.69712431	      0.00000000
     15.09333333	    -13.63678206	      1.79503306	     -0.31233833	      2.37034016	      0.93796225	      1.00331903	      1.34938763	      1.43136516	     -5.39487667	     19.14747560	      0.33418649	      8.67717980	     -5.57606627	      0.00000000	     40.45112851	      3.17384122	      3.77123052	     85.76829091	      1.49693907	     -2.12252609	    -16.52658213	      0.00000000
